<?xml version="1.0" standalone="no"?>
<!DOCTYPE svg PUBLIC "-//W3C//DTD SVG 20010904//EN"
 "http://www.w3.org/TR/2001/REC-SVG-20010904/DTD/svg10.dtd">
<svg version="1.0" xmlns="http://www.w3.org/2000/svg"
 width="554.000000pt" height="560.000000pt" viewBox="0 0 554.000000 560.000000"
 preserveAspectRatio="xMidYMid meet">

<g transform="translate(0.000000,560.000000) scale(0.100000,-0.100000)"
fill="#000000" stroke="none">
<path d="M1365 4010 c-3 -5 -1 -10 4 -10 6 0 11 5 11 10 0 6 -2 10 -4 10 -3 0
-8 -4 -11 -10z"/>
<path d="M1280 3989 c0 -5 5 -7 10 -4 6 3 10 8 10 11 0 2 -4 4 -10 4 -5 0 -10
-5 -10 -11z"/>
<path d="M1320 3990 c-10 -6 -11 -10 -2 -10 6 0 12 -7 12 -16 0 -8 4 -13 9 -9
10 6 11 45 1 45 -3 0 -12 -5 -20 -10z"/>
<path d="M1226 3953 c-8 -24 -21 -30 -31 -13 -11 18 -26 10 -20 -10 4 -11 2
-20 -4 -20 -22 0 -26 -2 -44 -18 -13 -12 -18 -13 -15 -3 2 7 -3 16 -9 18 -7 3
-13 -3 -13 -12 0 -9 -6 -15 -12 -12 -7 2 -12 10 -10 16 1 7 -2 10 -8 6 -7 -4
-7 -12 0 -26 9 -15 7 -19 -7 -19 -10 0 -27 7 -37 15 -11 8 -23 15 -28 15 -11
0 -10 -38 2 -61 10 -17 9 -18 -15 -7 -15 7 -24 17 -21 25 3 7 1 13 -4 13 -6 0
-10 -9 -10 -20 0 -11 -4 -20 -10 -20 -5 0 -10 -8 -10 -18 0 -26 -11 -34 -27
-21 -9 8 -13 8 -13 1 0 -6 5 -14 10 -17 6 -3 10 -11 10 -16 0 -6 -4 -7 -10 -4
-5 3 -10 2 -10 -4 0 -5 -12 -8 -27 -7 -45 5 -86 -33 -50 -47 6 -3 2 -6 -10 -6
-22 -1 -25 -4 -27 -33 -1 -7 -8 -20 -17 -28 -25 -24 -40 -75 -26 -90 9 -9 8
-11 -7 -8 -10 1 -21 -3 -23 -10 -3 -8 1 -10 11 -6 12 4 15 2 10 -9 -3 -9 -12
-18 -20 -21 -18 -7 -18 -26 1 -26 9 0 12 -6 8 -16 -3 -8 -12 -13 -19 -10 -8 3
-14 1 -14 -4 0 -6 5 -10 10 -10 6 0 10 -7 10 -16 0 -8 -3 -13 -7 -11 -5 3 -15
-2 -23 -11 -13 -14 -12 -15 3 -9 9 3 17 2 17 -2 0 -5 -7 -11 -15 -15 -8 -3
-15 -11 -14 -18 0 -10 2 -10 6 0 11 28 22 9 18 -32 -3 -31 0 -48 10 -56 11 -9
15 -9 15 -1 0 6 7 11 15 11 8 0 15 -4 15 -10 0 -5 -5 -10 -11 -10 -8 0 -8 -4
0 -13 7 -9 8 -24 2 -45 -7 -23 -6 -32 5 -36 7 -3 16 -1 20 5 3 6 13 7 23 3 9
-4 26 -6 38 -5 17 0 21 -3 16 -17 -6 -15 -5 -15 10 -3 9 7 14 18 10 25 -11 16
-10 30 0 37 5 4 0 16 -11 27 -18 18 -19 22 -6 41 9 13 11 21 4 21 -6 0 -13 -7
-16 -15 -6 -16 -24 -21 -24 -7 0 5 11 15 25 22 14 7 25 19 25 26 0 6 7 14 14
17 10 4 13 1 9 -9 -3 -7 0 -14 6 -14 6 0 16 12 22 28 28 74 66 138 60 100 0
-5 3 -8 9 -8 5 0 10 6 10 13 0 19 86 94 122 106 43 15 102 14 141 -3 121 -52
209 -281 178 -467 -22 -136 -95 -269 -213 -390 -200 -204 -477 -269 -756 -178
-34 11 -69 27 -77 36 -8 8 -19 12 -24 9 -12 -8 -87 35 -140 80 -23 20 -78 82
-122 136 l-79 100 0 -64 c0 -59 3 -68 37 -109 20 -24 59 -66 87 -93 45 -43 46
-45 11 -19 -22 17 -62 54 -89 82 l-48 52 7 -93 c4 -51 9 -100 11 -109 2 -9 28
-27 57 -41 161 -79 356 -109 572 -89 158 15 260 41 374 96 52 25 96 44 98 41
7 -7 -192 -104 -240 -116 -26 -7 -44 -16 -42 -21 7 -10 -70 -33 -203 -59 -112
-22 -207 -26 -217 -10 -4 6 21 10 69 10 104 0 351 49 334 66 -3 2 -52 -6 -109
-18 -83 -18 -132 -23 -244 -22 -155 2 -234 18 -365 74 -40 16 -74 29 -75 28
-2 -2 2 -33 7 -70 10 -66 11 -68 57 -95 122 -73 244 -103 422 -103 215 0 446
59 666 171 122 62 121 52 -5 -27 -297 -188 -769 -222 -1050 -75 -60 32 -72 35
-72 21 0 -22 142 -92 230 -114 160 -39 359 -47 499 -21 91 18 306 87 356 115
56 31 68 37 146 73 120 55 242 143 394 286 206 194 247 245 280 345 15 46 25
92 22 102 -4 15 -5 13 -6 -6 -1 -14 -6 -32 -11 -40 -7 -11 -10 -7 -10 17 0 17
-5 35 -11 39 -7 4 -9 0 -5 -14 4 -11 7 -43 9 -72 1 -39 -3 -55 -16 -65 -9 -7
-17 -18 -17 -26 0 -9 -3 -10 -11 -2 -13 13 4 52 18 43 4 -3 9 5 11 17 3 17 -1
21 -11 17 -10 -3 -17 2 -20 13 -3 12 -5 10 -6 -8 -1 -18 -8 -28 -22 -32 -17
-4 -19 -3 -10 6 6 6 10 25 10 42 -1 16 -3 22 -6 13 -2 -10 -9 -18 -14 -18 -6
0 -7 5 -3 12 4 7 3 8 -4 4 -7 -4 -9 -18 -6 -32 4 -14 2 -24 -5 -24 -6 0 -11 9
-11 20 0 11 -4 20 -10 20 -5 0 -10 -5 -10 -12 0 -6 -2 -9 -5 -6 -3 3 4 30 16
59 13 34 22 82 24 127 2 40 6 76 9 79 3 4 5 22 5 42 -1 36 -1 36 -8 6 -5 -25
-8 -27 -14 -12 -4 10 -7 35 -8 55 0 43 -52 198 -65 195 -5 -1 -17 21 -26 48
-11 35 -13 47 -4 40 7 -6 16 -8 19 -4 4 3 7 0 7 -8 1 -10 5 -8 15 5 12 15 15
16 15 5 0 -9 7 -16 15 -16 20 0 19 3 -10 41 -35 46 -31 56 6 18 31 -32 32 -32
49 -12 13 15 19 17 30 7 10 -10 10 -8 1 10 -6 12 -16 34 -22 49 -9 26 -9 27 8
12 10 -8 25 -13 33 -11 12 4 13 3 1 -5 -14 -10 -7 -32 10 -32 6 0 7 4 4 10 -3
5 -1 19 5 30 9 17 8 19 -7 14 -15 -5 -16 -4 -3 5 22 15 63 14 54 -1 -4 -7 -3
-9 2 -5 4 4 9 27 10 50 1 23 0 34 -3 25 -2 -10 -8 -18 -13 -18 -5 0 -7 6 -4
14 3 8 1 23 -5 33 -9 16 -10 16 -11 1 0 -31 -20 -30 -31 1 -6 17 -15 31 -21
31 -5 0 -6 -5 -3 -10 3 -6 -1 -13 -9 -16 -13 -5 -12 -9 5 -23 22 -17 22 -17
-10 -17 -17 0 -29 2 -26 4 6 6 -26 31 -40 32 -5 0 -3 -5 5 -10 9 -6 10 -10 3
-10 -6 0 -14 4 -18 10 -3 5 -13 6 -22 3 -11 -4 -14 -3 -9 5 11 18 -3 14 -22
-5 -16 -16 -17 -16 -20 0 -2 9 -8 17 -14 17 -5 0 -8 -7 -4 -15 4 -10 -1 -15
-14 -15 -11 0 -20 5 -20 11 0 6 -9 8 -20 4 -12 -4 -20 -2 -20 5 0 6 -5 8 -12
4 -7 -5 -8 -3 -3 5 9 16 -71 95 -87 85 -7 -4 -8 -3 -4 4 8 14 -13 16 -33 3
-16 -10 -51 16 -51 37 0 11 -3 12 -13 3 -10 -8 -17 -7 -25 1 -8 8 -15 8 -24 0
-17 -14 -70 -10 -64 4 7 18 -37 4 -48 -15 -8 -13 -11 -12 -16 9 l-6 25 -8 -22z
m301 -77 c0 -8 -6 -12 -14 -9 -7 3 -13 9 -13 14 0 5 6 9 13 9 8 0 14 -6 14
-14z m412 -132 c10 -9 -56 -3 -69 7 -11 7 -4 8 25 3 22 -4 42 -8 44 -10z
m-233 -80 c-4 -15 -2 -32 5 -40 6 -8 7 -14 2 -14 -11 0 -33 44 -33 65 0 8 7
15 16 15 12 0 15 -6 10 -26z m39 16 c3 -5 1 -10 -4 -10 -6 0 -11 5 -11 10 0 6
2 10 4 10 3 0 8 -4 11 -10z m76 -20 c10 -6 19 -15 19 -20 0 -17 -26 -11 -45
10 -20 22 -7 27 26 10z m-900 -133 c-13 -13 -26 -3 -16 12 3 6 11 8 17 5 6 -4
6 -10 -1 -17z m811 -34 c10 -42 13 -45 18 -23 5 22 8 18 24 -30 26 -78 30
-141 17 -249 -12 -100 -34 -166 -51 -156 -7 4 -7 12 0 25 6 11 6 21 1 24 -5 4
-12 0 -14 -6 -3 -8 -6 -6 -6 5 -1 9 2 17 7 17 8 0 11 33 12 205 2 99 -2 139
-14 167 -16 37 -21 68 -11 68 3 0 10 -21 17 -47z m-842 9 c0 -4 -9 -13 -20
-20 -16 -10 -20 -10 -20 2 0 8 6 17 13 19 19 8 27 8 27 -1z m838 -133 c-3 -20
-5 -19 -9 9 -3 20 -2 29 4 23 5 -5 7 -19 5 -32z m-159 -415 c-23 -43 -96 -141
-111 -150 -5 -4 6 16 25 42 19 27 43 65 54 84 31 57 48 81 51 71 2 -5 -7 -26
-19 -47z m314 -105 c-4 -13 -9 -17 -15 -11 -11 11 -3 32 12 32 4 0 6 -9 3 -21z
m-45 -50 c-9 -6 -14 -3 -16 8 -2 8 2 19 10 24 9 6 14 3 16 -8 2 -8 -2 -19 -10
-24z m-428 -54 c-24 -25 -46 -45 -49 -45 -3 0 15 20 39 45 24 25 46 45 49 45
3 0 -15 -20 -39 -45z m384 24 c-3 -6 0 -15 7 -20 9 -6 10 -9 2 -9 -15 0 -26
17 -18 30 3 6 8 10 11 10 3 0 2 -5 -2 -11z m-161 -94 c-3 -9 -8 -14 -10 -11
-3 3 -2 9 2 15 9 16 15 13 8 -4z m-383 -79 c0 -2 -8 -10 -17 -17 -16 -13 -17
-12 -4 4 13 16 21 21 21 13z"/>
<path d="M3312 3719 c-23 -12 -71 -47 -106 -78 -34 -31 -75 -66 -89 -78 -15
-13 -27 -30 -27 -38 0 -18 -20 -20 -20 -2 -1 7 -5 6 -13 -5 -7 -9 -32 -32 -55
-51 -39 -33 -44 -55 -9 -41 11 4 13 -1 10 -19 -3 -14 0 -28 7 -32 8 -5 8 -11
-2 -23 -7 -9 2 -6 21 8 29 20 32 25 18 35 -12 9 -15 21 -10 48 6 39 17 47 27
21 5 -14 11 -13 40 9 18 15 36 23 40 20 3 -4 6 0 6 8 0 9 14 26 32 39 32 23
64 28 216 33 34 1 58 4 52 5 -19 7 -10 18 15 20 13 1 27 -3 30 -8 3 -6 16 -10
29 -10 14 0 23 -6 23 -15 0 -11 -6 -14 -16 -9 -9 4 -27 8 -41 10 l-25 4 25
-11 c69 -33 126 -77 151 -118 16 -25 29 -39 29 -33 0 7 -12 31 -26 54 -19 30
-22 39 -10 35 13 -5 14 -3 4 13 -9 13 -14 16 -20 7 -12 -20 -20 0 -8 23 6 12
10 23 8 24 -2 1 -19 15 -39 29 -20 15 -45 27 -57 27 -25 0 -38 16 -20 24 16 7
-119 1 -147 -6 -11 -3 -15 -3 -8 -1 11 4 36 56 37 78 1 6 10 13 21 17 15 4 10
6 -15 7 -19 1 -54 -9 -78 -20z m33 -108 c14 -6 7 -8 -28 -9 -26 -1 -52 -4 -57
-7 -6 -4 -10 -2 -10 4 0 8 25 16 65 19 6 0 19 -3 30 -7z m265 -57 c0 -8 -19
-13 -24 -6 -3 5 1 9 9 9 8 0 15 -2 15 -3z"/>
<path d="M741 3714 c0 -11 3 -14 6 -6 3 7 2 16 -1 19 -3 4 -6 -2 -5 -13z"/>
<path d="M766 3705 c-3 -8 -1 -15 4 -15 6 0 10 7 10 15 0 8 -2 15 -4 15 -2 0
-6 -7 -10 -15z"/>
<path d="M1840 3586 c0 -2 7 -7 16 -10 8 -3 12 -2 9 4 -6 10 -25 14 -25 6z"/>
<path d="M3768 3585 c-3 -6 -8 -37 -11 -70 -6 -57 -6 -59 8 -30 8 17 15 23 15
15 2 -28 19 23 19 60 1 23 -2 30 -8 21 -7 -11 -9 -11 -13 0 -2 7 -7 9 -10 4z"/>
<path d="M4797 3513 c-11 -10 -8 -20 7 -26 10 -4 12 0 9 14 -6 21 -7 22 -16
12z"/>
<path d="M3666 3487 c3 -10 9 -15 12 -12 3 3 0 11 -7 18 -10 9 -11 8 -5 -6z"/>
<path d="M661 3464 c0 -11 3 -14 6 -6 3 7 2 16 -1 19 -3 4 -6 -2 -5 -13z"/>
<path d="M3770 3459 c0 -5 5 -7 10 -4 6 3 10 8 10 11 0 2 -4 4 -10 4 -5 0 -10
-5 -10 -11z"/>
<path d="M3676 3433 c8 -20 11 -46 13 -125 1 -51 2 -52 15 -27 7 14 16 43 20
65 6 38 6 38 -8 14 l-15 -25 -1 35 c0 46 -10 80 -22 80 -6 0 -7 -7 -2 -17z"/>
<path d="M1035 3430 c-3 -5 -1 -10 4 -10 6 0 11 5 11 10 0 6 -2 10 -4 10 -3 0
-8 -4 -11 -10z"/>
<path d="M2950 3404 c0 -8 5 -12 10 -9 6 3 10 10 10 16 0 5 -4 9 -10 9 -5 0
-10 -7 -10 -16z"/>
<path d="M946 3381 c-4 -7 -5 -15 -2 -18 9 -9 19 4 14 18 -4 11 -6 11 -12 0z"/>
<path d="M3880 3350 c-6 -12 -9 -24 -7 -27 3 -2 11 5 17 17 6 12 9 24 7 27 -3
2 -11 -5 -17 -17z"/>
<path d="M3939 3353 c-13 -16 -12 -17 4 -4 16 13 21 21 13 21 -2 0 -10 -8 -17
-17z"/>
<path d="M3070 3350 c-9 -6 -10 -10 -3 -10 6 0 15 5 18 10 8 12 4 12 -15 0z"/>
<path d="M3974 3346 c-36 -20 -54 -38 -48 -48 3 -5 -12 -26 -33 -46 -21 -21
-45 -51 -53 -67 -8 -17 -26 -40 -40 -53 -14 -13 -19 -21 -12 -17 6 3 12 2 12
-4 0 -15 -14 -21 -30 -11 -9 5 -19 5 -27 -2 -7 -6 -13 -7 -13 -3 0 5 -9 0 -20
-10 -14 -13 -20 -14 -20 -5 0 9 -8 6 -23 -8 -13 -12 -27 -19 -32 -15 -4 5 -6
1 -2 -9 7 -19 -30 -58 -41 -43 -21 30 -58 1 -100 -79 -7 -15 -9 -8 -5 30 8 67
-5 50 -22 -29 -15 -74 -41 -121 -61 -113 -8 3 -14 0 -14 -6 0 -6 -3 -9 -6 -6
-3 4 2 18 11 31 9 14 15 31 14 39 -3 27 1 39 13 32 6 -4 8 -3 4 4 -3 5 -1 12
5 14 10 3 24 68 14 68 -2 0 -9 -10 -16 -21 -8 -15 -8 -19 0 -15 6 4 11 2 11
-3 0 -6 -6 -11 -13 -11 -14 0 -61 -75 -63 -100 -2 -23 -15 -62 -20 -57 -3 2 0
16 6 31 15 40 -1 29 -56 -40 -44 -55 -228 -258 -280 -309 -34 -33 -98 -80
-110 -80 -6 0 -44 -31 -84 -67 -41 -37 -76 -65 -79 -62 -3 3 0 9 7 13 8 4 14
15 15 23 3 20 37 61 119 146 39 39 67 72 63 72 -4 0 -34 -29 -66 -64 -33 -35
-95 -95 -139 -132 -45 -37 -76 -70 -70 -74 11 -7 -39 -35 -55 -31 -5 2 -7 -1
-3 -5 7 -7 -63 -62 -70 -55 -2 1 -23 -14 -47 -33 -24 -20 -46 -36 -48 -36 -3
0 -42 -23 -87 -51 -319 -198 -668 -323 -1005 -363 -16 -1 -5 -4 25 -4 30 -1
100 5 155 14 55 8 129 19 165 23 36 5 74 12 85 16 16 6 17 5 5 -4 -19 -13 -5
-14 41 -1 19 6 49 12 65 14 34 5 173 55 252 91 30 14 57 24 59 22 4 -5 -146
-75 -225 -106 -47 -19 -87 -28 -130 -30 -7 -1 -11 -5 -8 -10 3 -4 -6 -6 -21
-3 -15 3 -24 1 -20 -5 14 -23 -319 -79 -513 -87 -158 -7 -390 6 -430 23 -24
11 -24 11 5 6 92 -14 110 -14 55 0 -30 8 -71 12 -90 10 -26 -4 -30 -3 -15 4
17 8 16 9 -10 9 -70 0 -354 86 -465 142 -30 15 -66 30 -80 34 -47 13 52 -43
135 -75 44 -18 108 -44 141 -60 180 -80 546 -159 743 -159 96 0 441 50 566 82
164 41 169 42 162 31 -11 -17 -87 -41 -232 -71 -283 -61 -330 -66 -520 -66
-160 0 -198 4 -340 32 -88 17 -171 34 -185 37 l-25 6 25 -11 c75 -33 311 -87
465 -107 79 -10 312 -7 390 5 44 7 105 14 135 16 30 3 81 8 113 12 38 4 57 3
57 -4 0 -6 52 7 116 28 114 39 160 59 99 44 -17 -4 -28 -4 -25 -1 9 10 110 45
104 36 -8 -13 8 -10 28 5 10 7 14 17 10 21 -4 5 -1 5 5 1 7 -4 70 24 145 65
73 39 138 72 143 73 6 1 27 8 48 15 21 7 44 10 52 7 8 -3 15 -1 15 4 0 7 99
50 118 50 3 0 -29 -18 -72 -40 -84 -43 -91 -45 -81 -30 4 6 -15 -4 -42 -22
-26 -18 -49 -36 -51 -40 -2 -5 -10 -8 -17 -8 -14 0 -155 -79 -155 -86 0 -3 6
-2 13 2 8 5 9 4 2 -3 -5 -6 -30 -18 -54 -27 -54 -21 -131 -75 -131 -92 0 -6
-21 -22 -46 -33 -25 -12 -44 -24 -41 -27 9 -9 131 43 278 118 164 84 192 101
181 112 -4 5 0 6 8 5 8 -2 54 19 102 46 64 35 85 52 78 60 -8 9 -3 11 17 9 16
-1 36 5 46 14 11 9 21 16 23 15 2 -2 30 9 61 23 124 55 220 76 362 82 167 6
255 -8 389 -60 142 -55 257 -134 368 -251 81 -85 118 -118 99 -87 -3 6 -1 10
4 10 6 0 11 -5 11 -11 0 -5 5 -7 10 -4 17 10 1 25 -26 25 -14 0 -23 4 -19 10
3 5 13 6 22 3 11 -4 14 -2 11 8 -3 8 -17 13 -34 12 -16 -1 -21 1 -11 4 9 2 15
9 11 14 -3 5 -10 6 -16 3 -7 -4 -8 -2 -4 5 4 6 13 8 19 4 7 -4 6 1 -2 10 -8
10 -12 20 -9 23 7 6 58 -44 118 -114 25 -29 65 -75 90 -101 25 -26 61 -68 80
-94 19 -25 39 -47 44 -47 4 0 24 -13 43 -30 33 -30 63 -39 63 -20 0 10 -20 37
-55 74 -11 11 -19 29 -17 39 5 25 19 21 30 -10 6 -16 11 -22 11 -15 1 10 6 9
19 -4 9 -10 59 -51 110 -91 50 -41 92 -78 92 -84 0 -6 4 -8 8 -5 5 3 21 -4 38
-16 16 -11 21 -17 11 -14 -10 3 -23 6 -27 6 -5 0 -21 11 -36 25 -14 13 -31 22
-36 19 -4 -3 -7 -1 -6 5 2 6 -13 21 -31 33 -19 12 -32 17 -27 10 4 -6 3 -12
-3 -12 -5 0 -13 5 -16 10 -7 12 -25 13 -25 2 0 -8 61 -38 73 -34 4 1 7 -2 7
-7 0 -5 12 -16 28 -24 15 -8 63 -35 107 -60 115 -66 152 -80 159 -62 4 10 -20
28 -82 60 -133 69 -246 160 -483 390 -315 306 -450 397 -707 476 -68 21 -127
41 -130 44 -3 3 12 5 34 5 30 0 36 3 24 11 -12 8 -11 9 5 5 11 -3 49 -12 85
-20 89 -21 212 -62 263 -88 138 -70 300 -211 532 -463 108 -118 363 -297 491
-345 47 -18 23 0 -48 36 -105 52 -188 105 -182 116 3 4 2 8 -3 7 -4 -1 -15 -1
-23 0 -13 1 -13 3 0 12 13 9 13 10 -2 6 -9 -3 -24 1 -35 8 -10 8 -13 15 -8 15
6 0 3 5 -5 10 -19 12 2 36 22 26 41 -21 59 -34 57 -42 -1 -5 6 -11 17 -13 10
-2 21 -7 24 -11 7 -11 82 -41 75 -30 -9 14 1 12 38 -6 42 -22 33 -13 -46 44
-36 26 -106 82 -156 125 -50 43 -91 74 -91 70 0 -5 6 -15 13 -23 6 -8 0 -5
-14 8 -14 12 -29 19 -34 15 -4 -5 -5 -3 -2 4 4 6 -5 21 -19 32 -15 12 -25 23
-23 26 3 2 18 -7 33 -20 57 -49 38 -24 -49 68 -174 181 -214 217 -232 211 -12
-4 -14 -3 -6 3 10 7 11 31 3 53 -1 3 -2 9 -1 13 1 4 -8 3 -20 -4 -15 -8 -19
-8 -15 0 5 7 -6 17 -26 26 -18 8 -28 14 -21 15 6 0 19 3 29 7 13 5 15 3 9 -7
-6 -9 -4 -11 5 -5 11 7 10 10 -1 19 -8 6 -15 18 -17 26 -6 24 51 -34 203 -210
214 -249 385 -401 552 -495 l86 -49 19 24 c18 22 18 24 1 44 -17 20 -17 20 0
7 16 -12 20 -12 34 2 20 20 26 15 -70 61 -94 45 -96 59 -4 22 80 -32 112 -36
112 -16 0 8 -8 16 -19 18 -24 5 -105 53 -184 109 -53 38 -162 152 -162 170 0
3 28 -21 63 -54 34 -32 89 -77 122 -99 79 -54 203 -110 215 -98 15 16 128 236
160 314 47 113 88 226 111 307 l20 73 -37 61 c-28 46 -40 59 -53 53 -43 -18
-66 -15 -77 10 -9 19 -9 26 0 30 6 2 4 5 -5 5 -41 2 -71 161 -58 304 5 50 7
93 4 95 -2 2 -11 -13 -19 -33 -13 -29 -20 -36 -36 -32 -11 3 -20 1 -20 -4 0
-17 -18 -9 -23 11 -3 11 -2 18 3 15 10 -6 24 24 21 44 -2 8 3 12 12 8 14 -5
37 10 37 24 0 4 -16 7 -35 6 -31 -1 -36 -5 -59 -56 -41 -93 -78 -231 -85 -321
l-6 -85 -30 69 c-16 38 -49 94 -72 124 -24 31 -43 61 -43 67 0 6 12 51 26 100
15 50 27 98 26 107 0 10 3 20 9 23 5 4 9 14 9 23 -1 16 -2 16 -14 0 -7 -10
-18 -18 -25 -18 -14 0 -15 27 -1 35 6 4 8 10 6 14 -9 14 36 86 82 129 24 23
42 45 39 48 -5 6 -47 -13 -57 -25 -12 -15 -60 -41 -60 -32 0 5 18 25 41 46 56
51 42 55 -23 7 -59 -44 -110 -96 -154 -157 -59 -82 -75 -83 -24 -1 17 26 27
52 24 58 -4 6 -3 8 3 5 11 -7 55 47 46 57 -4 3 -15 6 -25 6 -10 0 -18 5 -18
11 0 5 -4 8 -9 5 -11 -7 -23 22 -15 36 3 5 12 7 20 4 9 -4 18 3 23 17 5 13 30
41 55 62 25 21 43 42 40 46 -3 5 3 6 12 2 12 -4 15 -3 10 5 -4 7 -16 12 -27
12 -10 0 -19 4 -19 9 0 6 -9 8 -19 6 -50 -9 -97 -63 -139 -157 -18 -41 -25
-48 -49 -47 -26 1 -26 1 -5 7 30 9 30 25 0 34 -13 3 -17 6 -10 7 21 2 13 21
-9 21 -11 0 -18 -4 -15 -9 3 -5 -3 -11 -15 -14 -20 -6 -26 2 -32 38 -6 45 -19
49 -75 22 -16 -7 -21 -16 -16 -30 4 -12 2 -17 -4 -13 -6 3 -12 -4 -14 -16 -2
-18 -9 -23 -32 -23 -16 0 -31 -6 -33 -12 -3 -7 0 -13 6 -13 6 0 11 5 11 10 0
6 5 10 10 10 18 0 11 -18 -9 -25 -11 -3 -22 -14 -24 -23 -4 -16 -5 -16 -6 1
-1 20 -21 23 -21 3 0 -8 -4 -18 -10 -21 -6 -3 -7 1 -4 9 4 10 1 16 -9 16 -8 0
-18 6 -21 13 -3 6 -3 2 0 -10 4 -19 2 -22 -13 -16 -10 4 -20 10 -23 14 -3 4
-14 0 -25 -8 -20 -15 -20 -15 2 -10 15 3 23 -1 26 -14 6 -23 39 -38 45 -21 2
7 8 12 14 12 6 0 6 -6 -2 -15 -17 -20 -32 -19 -60 5 -16 14 -30 18 -49 13 -39
-9 -41 -17 -3 -10 23 5 31 3 26 -5 -4 -7 -3 -8 4 -4 7 4 12 2 12 -3 0 -6 6
-11 13 -11 7 0 23 -7 35 -16 19 -13 20 -18 10 -37 -7 -12 -11 -26 -10 -30 1
-4 -5 -10 -13 -13 -8 -3 -12 -11 -8 -18 4 -8 2 -8 -7 1 -7 6 -19 9 -26 6 -8
-3 -14 0 -14 7 0 7 -6 10 -13 7 -8 -3 -40 4 -71 14 -33 11 -101 23 -155 26
-79 5 -111 2 -178 -16 -95 -24 -96 -24 -88 -11 9 14 119 69 183 91 29 10 79
21 113 25 70 8 71 16 2 16 -59 -1 -136 -29 -241 -86 -65 -37 -79 -41 -91 -29
-11 12 -10 18 10 39 30 32 84 58 100 48 8 -4 9 -3 5 4 -5 8 2 12 18 12 14 0
26 -5 26 -12 0 -6 7 -3 16 8 10 13 17 15 20 7 4 -9 11 -9 29 -1 24 11 26 31 2
23 -7 -3 -19 0 -27 5 -13 9 -13 11 0 20 11 8 7 9 -15 4 -16 -4 -34 -10 -39
-15 -5 -4 2 -6 15 -3 l24 5 -25 -14 c-17 -11 -30 -12 -42 -6 -13 7 -18 6 -16
-3 2 -7 -3 -12 -10 -10 -7 1 -15 -5 -18 -13 -4 -8 -10 -15 -16 -15 -5 0 -7 4
-3 9 3 6 -7 6 -27 0 -40 -11 -38 -11 -38 0 0 5 9 13 20 16 11 3 20 11 20 16 0
6 -10 3 -22 -5 -29 -20 -42 -20 -34 0 3 9 2 12 -5 9 -5 -4 -7 -15 -4 -25 3
-11 0 -20 -10 -24 -11 -4 -14 -2 -10 7 4 6 -15 -12 -42 -41 -49 -54 -72 -67
-53 -32 6 11 9 24 6 29 -10 15 -65 2 -87 -20 -37 -37 -33 -11 6 38 41 51 76
85 165 160 30 26 74 65 96 86 23 22 52 44 64 51 13 6 26 18 30 26 14 28 29 65
35 88 4 12 24 36 45 54 22 17 37 34 35 38 -3 4 3 14 12 21 14 12 16 12 8 0 -5
-9 -4 -12 2 -8 6 4 13 16 16 27 3 11 4 20 4 19 -1 -1 -12 -6 -23 -13z m-304
-300 c0 -3 -4 -8 -10 -11 -5 -3 -10 -1 -10 4 0 6 5 11 10 11 6 0 10 -2 10 -4z
m870 -101 c-12 -12 -20 -26 -19 -31 4 -23 -3 -34 -22 -34 -18 0 -19 2 -9 15 7
9 13 29 12 45 0 17 4 29 11 27 6 -1 11 3 12 8 0 6 4 16 9 24 7 12 11 10 18 -9
6 -18 4 -28 -12 -45z m-966 46 c3 -5 -1 -11 -9 -14 -9 -4 -12 -1 -8 9 6 16 10
17 17 5z m786 -241 c0 -5 -5 -10 -11 -10 -5 0 -7 5 -4 10 3 6 8 10 11 10 2 0
4 -4 4 -10z m433 -90 c-10 -9 -20 -13 -21 -8 -6 13 19 39 30 32 5 -3 1 -14 -9
-24z m100 13 c-7 -2 -13 -13 -13 -23 0 -9 -7 -24 -17 -31 -15 -13 -15 -12 -4
9 6 12 9 22 5 22 -3 0 -1 7 6 15 7 8 18 15 24 14 7 0 6 -2 -1 -6z m-13 -92
c-11 -22 -30 -28 -30 -10 0 5 4 8 9 4 5 -3 13 4 16 16 4 11 9 18 12 16 2 -3 0
-15 -7 -26z m258 -92 c-2 -6 -8 -10 -13 -10 -5 0 -11 4 -13 10 -2 6 4 11 13
11 9 0 15 -5 13 -11z m39 -32 c-6 -19 -23 -18 -24 2 -1 14 3 18 13 14 8 -3 13
-10 11 -16z m-1245 -429 c31 -16 67 -41 80 -56 12 -14 17 -22 11 -18 -24 14
-35 -5 -18 -31 9 -13 14 -31 11 -39 -6 -16 -26 -19 -26 -3 0 5 6 7 13 4 6 -4
1 3 -13 14 -14 11 -30 21 -36 21 -6 0 -16 11 -22 25 -6 14 -17 25 -23 25 -6 0
-9 6 -6 13 3 8 -13 20 -42 31 -56 23 -73 35 -65 48 10 15 73 -1 136 -34z m176
-93 c15 -14 22 -25 16 -25 -6 0 -19 9 -29 20 -13 14 -21 17 -31 9 -9 -7 -14
-6 -20 2 -4 7 -3 9 4 5 6 -3 13 -2 17 4 9 14 13 13 43 -15z m7 -73 c-3 -3 -11
0 -18 7 -9 10 -8 11 6 5 10 -3 15 -9 12 -12z m-1865 -6 c0 -2 -7 -7 -16 -10
-8 -3 -12 -2 -9 4 6 10 25 14 25 6z m1967 -92 c7 -6 9 -15 5 -19 -4 -4 -2 -6
3 -4 20 5 65 -20 60 -33 -3 -8 5 -28 19 -46 15 -22 26 -29 29 -20 4 10 8 10
20 -2 14 -13 13 -17 -10 -34 -15 -11 -23 -14 -19 -8 4 7 1 12 -9 12 -11 0 -15
6 -10 19 4 14 -1 20 -21 25 -17 5 -24 12 -20 21 3 8 2 14 -2 14 -26 -4 -41 3
-36 16 4 9 -3 19 -20 27 -15 6 -25 17 -22 24 2 6 -1 17 -7 23 -9 9 -7 10 8 5
11 -4 25 -13 32 -20z m-1550 -8 c0 -8 -6 -12 -15 -8 -9 3 -13 1 -10 -4 3 -5
-6 -18 -21 -29 -20 -15 -23 -15 -12 -2 7 9 10 17 5 17 -6 0 45 39 52 40 0 0 1
-6 1 -14z m43 10 c0 -2 -7 -7 -16 -10 -8 -3 -12 -2 -9 4 6 10 25 14 25 6z
m-120 -66 c0 -12 -29 -20 -35 -9 -4 5 -1 8 7 7 7 -2 12 3 10 10 -1 8 2 11 8 7
5 -3 10 -10 10 -15z m-1858 -57 c73 -20 127 -38 122 -40 -11 -4 -254 64 -263
72 -9 9 10 5 141 -32z m3654 -45 c5 -7 3 -8 -7 -3 -12 8 -12 6 0 -8 7 -9 19
-17 26 -17 8 0 23 -15 34 -34 12 -19 28 -37 37 -40 9 -3 12 -11 8 -18 -5 -8
-2 -9 9 -5 11 4 14 2 10 -9 -7 -19 -28 -12 -27 10 1 9 -6 16 -16 16 -10 0 -22
9 -25 20 -3 11 -13 20 -20 20 -8 0 -21 9 -29 21 -9 13 -19 18 -27 14 -7 -5
-10 -4 -5 3 3 5 1 12 -6 14 -15 5 -1 28 17 28 8 0 17 -5 21 -12z m-3489 -4
c-3 -3 -12 -4 -19 -1 -8 3 -5 6 6 6 11 1 17 -2 13 -5z m3539 -3 c-3 -5 1 -14
9 -21 8 -7 15 -17 15 -22 0 -5 -9 0 -21 11 -18 16 -20 41 -3 41 3 0 3 -4 0 -9z
m-3346 -11 c30 -5 12 -6 -55 -3 -55 3 -102 7 -104 9 -8 7 114 3 159 -6z m3090
-16 c0 -2 -9 0 -20 6 -11 6 -20 13 -20 16 0 2 9 0 20 -6 11 -6 20 -13 20 -16z
m17 -8 c-3 -8 -1 -17 6 -20 7 -2 4 -5 -5 -5 -10 -1 -18 1 -18 3 0 10 13 36 17
36 3 0 3 -6 0 -14z m-2824 -3 c-7 -2 -21 -2 -30 0 -10 3 -4 5 12 5 17 0 24 -2
18 -5z m-96 -9 c-3 -3 -12 -4 -19 -1 -8 3 -5 6 6 6 11 1 17 -2 13 -5z m3003
-74 c0 -10 -6 -17 -15 -16 -23 3 -29 15 -11 22 9 3 13 11 9 17 -3 6 -1 7 5 3
7 -4 12 -16 12 -26z m67 -43 c0 -9 -5 -17 -10 -17 -5 0 -7 7 -4 14 4 10 1 13
-9 9 -7 -3 -14 -10 -14 -16 0 -7 -4 -7 -12 1 -9 9 -7 16 8 30 21 20 41 10 41
-21z m178 12 c-4 -5 -12 -9 -18 -8 -9 0 -8 2 1 6 6 2 9 10 6 15 -4 7 -2 8 5 4
6 -4 9 -12 6 -17z m375 -51 c0 -17 -19 -7 -49 27 -42 48 -39 52 9 14 22 -18
40 -36 40 -41z m-346 34 c2 -4 -4 -9 -15 -9 -11 -1 -17 2 -14 8 7 11 22 12 29
1z m52 -24 c4 -7 4 -10 -1 -6 -4 4 -13 0 -20 -9 -12 -16 -35 -11 -35 8 0 6 4
8 8 5 4 -2 14 -1 22 5 19 11 18 11 26 -3z m31 -23 c0 -8 -4 -12 -9 -9 -4 3 -8
9 -8 15 0 5 4 9 8 9 5 0 9 -7 9 -15z m-27 -26 c11 -19 10 -20 -9 -9 -12 6 -21
15 -21 20 0 18 19 11 30 -11z"/>
<path d="M3940 1970 c8 -5 20 -10 25 -10 6 0 3 5 -5 10 -8 5 -19 10 -25 10 -5
0 -3 -5 5 -10z"/>
<path d="M3033 3328 c-15 -20 -25 -38 -20 -38 3 0 12 11 21 25 17 26 16 35 -1
13z"/>
<path d="M3643 3265 c0 -22 2 -30 4 -17 2 12 2 30 0 40 -3 9 -5 -1 -4 -23z"/>
<path d="M860 3250 c0 -5 5 -10 10 -10 6 0 10 5 10 10 0 6 -4 10 -10 10 -5 0
-10 -4 -10 -10z"/>
<path d="M940 3234 c0 -8 5 -12 10 -9 6 3 10 10 10 16 0 5 -4 9 -10 9 -5 0
-10 -7 -10 -16z"/>
<path d="M2897 3231 c-3 -13 -2 -33 2 -44 l8 -22 7 21 c3 12 3 32 -2 44 l-9
24 -6 -23z"/>
<path d="M2930 3243 c0 -15 19 -37 26 -31 3 4 -1 14 -10 23 -9 9 -16 13 -16 8z"/>
<path d="M3678 3215 c-3 -14 -1 -25 3 -25 5 0 9 11 9 25 0 14 -2 25 -4 25 -2
0 -6 -11 -8 -25z"/>
<path d="M3995 3230 c-3 -5 -1 -10 4 -10 6 0 11 5 11 10 0 6 -2 10 -4 10 -3 0
-8 -4 -11 -10z"/>
<path d="M920 3193 c0 -5 4 -15 10 -23 11 -18 25 -7 17 15 -6 15 -27 21 -27 8z"/>
<path d="M3631 3174 c0 -11 3 -14 6 -6 3 7 2 16 -1 19 -3 4 -6 -2 -5 -13z"/>
<path d="M3652 3160 c-18 -29 -15 -36 8 -15 20 18 26 35 12 35 -4 0 -13 -9
-20 -20z"/>
<path d="M3747 3139 c-17 -17 -24 -30 -17 -34 5 -3 13 1 16 9 3 9 11 13 18 9
6 -3 8 -3 4 2 -4 4 -3 14 4 22 20 25 4 19 -25 -8z"/>
<path d="M4979 3050 l-24 -20 32 11 c18 6 30 15 27 20 -7 12 -8 12 -35 -11z"/>
<path d="M4530 3042 c0 -6 9 -12 20 -15 11 -3 20 -3 20 -1 0 2 -9 8 -20 14
-11 6 -20 7 -20 2z"/>
<path d="M4895 2993 c-22 -19 -30 -30 -19 -24 12 6 24 7 28 4 3 -3 6 -1 6 5 0
7 6 12 14 12 19 0 31 19 20 30 -5 5 -27 -7 -49 -27z"/>
<path d="M30 2937 c0 -66 79 -186 202 -305 111 -108 131 -113 26 -6 -97 98
-170 199 -205 284 -18 45 -23 50 -23 27z"/>
<path d="M4858 2939 c-39 -20 -43 -26 -30 -44 4 -6 23 5 46 28 44 41 40 46
-16 16z"/>
<path d="M4320 2930 c0 -5 5 -10 10 -10 6 0 10 5 10 10 0 6 -4 10 -10 10 -5 0
-10 -4 -10 -10z"/>
<path d="M4795 2929 c-11 -17 1 -21 15 -4 8 9 8 15 2 15 -6 0 -14 -5 -17 -11z"/>
<path d="M4328 2903 c7 -3 16 -2 19 1 4 3 -2 6 -13 5 -11 0 -14 -3 -6 -6z"/>
<path d="M3775 2870 c-16 -7 -17 -9 -3 -9 9 -1 20 4 23 9 7 11 7 11 -20 0z"/>
<path d="M3990 2876 c0 -2 9 -6 20 -9 11 -3 18 -1 14 4 -5 9 -34 13 -34 5z"/>
<path d="M5433 2863 c15 -2 39 -2 55 0 15 2 2 4 -28 4 -30 0 -43 -2 -27 -4z"/>
<path d="M1929 2823 c-15 -144 17 -257 96 -351 20 -23 33 -42 29 -42 -4 0 1
-7 12 -15 10 -8 15 -15 11 -15 -21 -1 69 -63 154 -107 74 -39 104 -49 130 -46
27 4 31 2 19 -7 -12 -9 -10 -10 10 -5 38 11 46 24 14 23 -52 -1 -210 88 -289
163 -105 100 -149 191 -162 337 -3 39 -10 72 -14 72 -5 0 -9 -3 -10 -7z"/>
<path d="M1878 2764 c-5 -4 -8 -19 -9 -33 0 -14 -3 -20 -6 -14 -3 8 -28 -10
-65 -46 l-61 -58 17 -69 c10 -38 19 -80 20 -93 4 -34 103 -141 177 -190 77
-52 178 -83 250 -79 l54 3 -45 14 c-25 8 -54 16 -65 18 -67 12 -192 76 -283
147 -73 56 -103 92 -39 46 26 -19 53 -40 59 -47 6 -7 17 -13 25 -13 7 0 16 -6
19 -14 3 -8 18 -19 34 -25 24 -8 28 -7 23 5 -7 19 2 18 22 -3 14 -13 21 -14
35 -5 10 6 20 8 22 4 4 -10 84 -52 98 -52 6 0 8 5 5 10 -3 6 -14 10 -25 10
-11 0 -20 10 -24 25 -4 14 -11 25 -16 25 -6 0 -10 6 -10 14 0 8 -15 30 -32 49
-125 131 -159 192 -167 300 -3 44 -9 75 -13 71z m-33 -114 c3 -5 1 -10 -4 -10
-6 0 -11 5 -11 10 0 6 2 10 4 10 3 0 8 -4 11 -10z"/>
<path d="M4946 2753 c-6 -14 -5 -15 5 -6 7 7 10 15 7 18 -3 3 -9 -2 -12 -12z"/>
<path d="M3176 2751 c-4 -7 -5 -15 -2 -18 9 -9 19 4 14 18 -4 11 -6 11 -12 0z"/>
<path d="M2110 2651 c0 -25 6 -27 13 -6 4 8 2 17 -3 20 -6 4 -10 -3 -10 -14z"/>
<path d="M5346 2615 c-3 -9 -6 -29 -5 -43 1 -22 3 -19 10 12 10 40 6 60 -5 31z"/>
<path d="M2136 2585 c4 -8 8 -15 10 -15 2 0 4 7 4 15 0 8 -4 15 -10 15 -5 0
-7 -7 -4 -15z"/>
<path d="M1636 2529 c-117 -99 -225 -168 -421 -264 -277 -137 -427 -178 -650
-177 -188 0 -289 21 -468 97 -22 9 -36 11 -32 5 15 -24 226 -106 340 -131 38
-9 125 -13 240 -13 150 0 195 4 267 22 165 41 351 119 506 213 90 55 94 56 47
14 -52 -48 -136 -94 -292 -162 -185 -80 -284 -103 -473 -110 -216 -7 -316 5
-479 61 -74 25 -136 44 -139 42 -5 -5 64 -36 80 -36 5 0 7 -4 4 -9 -9 -14 326
-130 427 -147 147 -26 411 -15 592 25 77 16 150 33 163 37 12 3 22 2 22 -3 0
-27 -383 -106 -570 -118 -175 -11 -369 32 -618 139 -45 19 -82 31 -82 27 0 -5
26 -19 58 -31 31 -12 77 -30 102 -40 70 -28 229 -77 290 -89 97 -19 353 -51
415 -51 90 0 324 27 396 45 106 27 278 94 374 145 163 87 208 115 204 125 -5
15 -21 9 -101 -38 -81 -47 -168 -89 -168 -82 0 3 21 16 48 30 26 14 67 39 92
55 25 16 66 41 92 56 l48 27 -62 56 c-72 65 -129 149 -148 217 -8 27 -21 63
-30 81 l-15 32 -59 -50z m-326 -449 c-8 -5 -19 -10 -25 -10 -5 0 -3 5 5 10 8
5 20 10 25 10 6 0 3 -5 -5 -10z m-90 -36 c-69 -30 -217 -62 -341 -74 -137 -13
-297 -3 -394 24 -66 19 -50 19 65 1 123 -19 262 -19 397 0 107 15 260 49 271
59 3 3 12 6 21 6 9 -1 0 -8 -19 -16z m420 -12 c0 -4 -15 -13 -32 -21 -18 -7
-59 -25 -90 -38 -31 -14 -62 -23 -69 -21 -7 2 32 23 87 46 113 47 104 44 104
34z m-213 -88 c-3 -3 -12 -4 -19 -1 -8 3 -5 6 6 6 11 1 17 -2 13 -5z m-117
-34 c-105 -34 -360 -69 -445 -61 l-60 6 60 7 c33 4 103 12 155 18 52 6 149 22
215 34 158 31 178 30 75 -4z"/>
<path d="M5221 2514 c0 -11 3 -14 6 -6 3 7 2 16 -1 19 -3 4 -6 -2 -5 -13z"/>
<path d="M5331 2514 c0 -11 3 -14 6 -6 3 7 2 16 -1 19 -3 4 -6 -2 -5 -13z"/>
<path d="M2514 2229 c-73 -47 -131 -92 -74 -57 128 78 172 108 156 108 -2 0
-39 -23 -82 -51z"/>
<path d="M5313 2242 c1 -22 6 -40 12 -39 5 1 9 -3 8 -10 -2 -7 3 -10 11 -7 12
5 11 12 -3 45 -25 55 -30 57 -28 11z"/>
<path d="M2168 2239 c9 -9 107 -29 135 -28 21 0 21 1 2 9 -11 5 -37 9 -58 9
-21 1 -36 4 -34 9 3 4 -8 7 -23 7 -16 0 -26 -3 -22 -6z"/>
<path d="M2013 2144 c-14 -27 -6 -49 13 -33 7 6 21 9 29 5 9 -3 13 -2 10 4 -3
6 0 10 7 10 10 0 9 3 -2 10 -9 6 -17 5 -21 -2 -4 -6 -10 -4 -17 7 -9 17 -10
17 -19 -1z"/>
<path d="M2297 2098 c-31 -17 -56 -33 -54 -34 4 -5 117 56 117 62 0 6 -1 6
-63 -28z"/>
<path d="M1895 2084 c-229 -140 -467 -231 -676 -259 l-104 -14 90 4 c50 3 128
14 175 25 47 10 117 26 155 35 120 26 438 156 422 171 -3 3 -19 -2 -36 -11
-47 -24 -37 -9 14 21 25 14 43 29 41 32 -3 3 -1 11 5 19 22 26 -25 14 -86 -23z"/>
<path d="M2225 2000 c-3 -6 1 -7 9 -4 18 7 21 14 7 14 -6 0 -13 -4 -16 -10z"/>
<path d="M2085 1945 c-16 -7 -23 -14 -15 -14 8 0 26 6 40 14 32 18 14 18 -25
0z"/>
<path d="M308 1923 c7 -3 16 -2 19 1 4 3 -2 6 -13 5 -11 0 -14 -3 -6 -6z"/>
<path d="M1910 1889 c-30 -13 -35 -18 -16 -14 36 8 96 33 76 33 -8 0 -35 -9
-60 -19z"/>
<path d="M3055 1851 c-130 -35 -216 -67 -305 -113 -81 -43 -138 -78 -126 -78
5 0 24 10 43 21 19 12 37 19 40 15 4 -3 1 -6 -5 -6 -6 0 -17 -6 -24 -12 -22
-21 -82 -52 -73 -38 5 8 3 11 -5 8 -17 -5 -22 -39 -8 -55 8 -10 7 -13 -3 -15
-25 -2 -34 -5 -71 -22 -49 -21 -65 -21 -47 1 13 15 11 15 -19 -1 -19 -10 -30
-21 -26 -28 4 -6 3 -8 -4 -4 -6 3 -39 -5 -74 -20 -106 -43 -127 -55 -121 -70
3 -9 -1 -14 -12 -14 -9 0 -13 5 -10 10 3 6 4 10 1 10 -7 0 -188 -60 -211 -70
-37 -16 -209 -60 -300 -77 -88 -16 -258 -20 -375 -9 -46 4 -49 3 -20 -4 56
-15 378 -38 460 -34 124 6 279 34 385 70 55 18 99 37 98 43 -2 6 4 8 12 5 12
-5 50 10 240 96 33 15 105 47 160 70 55 23 128 55 163 71 108 50 308 121 409
145 37 9 111 16 163 17 80 0 107 -4 170 -27 41 -15 81 -28 88 -28 6 -1 12 -5
12 -10 0 -5 9 -6 20 -3 12 4 20 2 20 -5 0 -6 -6 -8 -12 -5 -7 4 7 -12 32 -34
25 -22 48 -41 51 -41 10 0 133 -150 243 -295 102 -135 280 -317 421 -433 l80
-65 -90 94 c-49 52 -99 101 -110 109 -11 8 -32 26 -46 40 -14 14 -49 45 -77
70 -29 25 -52 53 -52 62 0 10 -9 22 -20 28 -10 6 -17 17 -14 24 3 9 -1 13 -12
13 -9 -1 -19 5 -21 13 -4 13 -3 13 6 0 8 -11 11 -11 11 -2 0 7 -6 15 -13 18
-8 3 -24 19 -36 35 -19 26 -20 33 -9 46 11 14 11 16 -4 10 -10 -3 -20 -1 -24
5 -4 7 -3 8 4 4 7 -4 12 -1 12 8 0 9 -4 16 -8 16 -5 0 -17 7 -28 16 -10 8 -14
13 -7 10 6 -4 14 -2 18 4 8 13 25 13 25 -1 0 -5 -4 -7 -10 -4 -17 10 -11 -4
10 -25 20 -20 36 -27 26 -12 -3 5 1 9 9 9 18 0 19 -9 3 -26 -11 -10 -7 -11 19
-7 33 6 54 -8 27 -18 -8 -3 -13 -2 -10 2 3 5 -1 9 -8 9 -9 0 -1 -20 21 -54 20
-29 37 -53 39 -53 8 0 -1 25 -11 32 -5 4 -10 12 -10 18 0 6 -6 15 -14 19 -8 6
-9 11 -3 15 6 3 13 2 17 -4 3 -5 15 -10 25 -10 13 0 17 -5 14 -15 -10 -26 5
-68 22 -61 9 3 12 1 9 -4 -3 -6 4 -10 16 -10 18 0 19 2 9 15 -7 8 -18 15 -26
15 -7 0 -16 4 -19 10 -4 6 1 7 11 3 12 -4 15 -3 10 5 -12 20 10 13 30 -9 10
-12 18 -30 16 -40 -4 -23 13 -25 22 -2 4 9 -1 25 -12 37 -29 32 -33 43 -18 49
9 4 12 0 9 -13 -3 -13 2 -20 19 -25 12 -5 29 -17 37 -28 13 -18 15 -18 23 -2
15 26 -40 89 -81 93 -22 2 -31 -1 -31 -12 0 -30 -19 -25 -47 13 -26 37 -76 80
-58 50 5 -8 4 -10 -3 -5 -7 4 -12 13 -12 20 0 7 -14 25 -32 42 -17 16 -28 24
-25 19 3 -7 -8 -11 -29 -11 -38 0 -46 13 -11 18 21 3 20 4 -10 23 -23 13 -29
21 -20 27 9 5 7 8 -4 8 -9 0 -25 11 -35 25 -10 14 -25 25 -32 25 -7 0 -10 5
-7 10 6 9 -16 15 -39 11 -5 -1 -6 5 -3 13 5 13 -18 36 -36 36 -12 0 -16 -34
-5 -42 8 -5 9 -8 2 -8 -6 0 -17 7 -24 15 -7 8 -8 15 -3 15 5 0 9 8 9 19 0 15
-5 17 -27 11 -14 -4 -33 -3 -40 2 -12 8 -11 9 1 6 8 -3 20 0 26 6 13 12 -10
29 -117 89 -115 63 -238 99 -359 103 -92 4 -119 1 -215 -25z m580 -111 c-3 -5
-12 -10 -18 -10 -7 0 -6 4 3 10 19 12 23 12 15 0z m-840 -111 c-3 -4 -12 -6
-20 -3 -8 4 -13 10 -10 15 3 4 12 6 20 3 8 -4 13 -10 10 -15z m1045 5 c0 -2
-7 -4 -15 -4 -8 0 -15 4 -15 10 0 5 7 7 15 4 8 -4 15 -8 15 -10z m-1190 -35
c12 -8 10 -9 -9 -4 -17 5 -22 4 -16 -5 5 -9 4 -11 -4 -6 -6 4 -9 12 -6 17 8
12 16 11 35 -2z m-360 -139 c0 -5 -5 -10 -11 -10 -5 0 -7 5 -4 10 3 6 8 10 11
10 2 0 4 -4 4 -10z m1775 -20 c10 -11 16 -20 13 -20 -3 0 -13 9 -23 20 -10 11
-16 20 -13 20 3 0 13 -9 23 -20z m-2088 -136 c-3 -3 -12 -4 -19 -1 -8 3 -5 6
6 6 11 1 17 -2 13 -5z m-237 -38 c0 -3 -4 -8 -10 -11 -5 -3 -10 -1 -10 4 0 6
5 11 10 11 6 0 10 -2 10 -4z"/>
<path d="M1815 1860 l-20 -9 20 0 c11 0 27 4 35 9 13 9 13 10 0 9 -8 0 -24 -4
-35 -9z"/>
<path d="M635 1830 c11 -5 27 -9 35 -9 9 0 8 4 -5 9 -11 5 -27 9 -35 9 -9 0
-8 -4 5 -9z"/>
<path d="M738 1803 c7 -3 16 -2 19 1 4 3 -2 6 -13 5 -11 0 -14 -3 -6 -6z"/>
<path d="M798 1793 c12 -2 30 -2 40 0 9 3 -1 5 -23 4 -22 0 -30 -2 -17 -4z"/>
<path d="M878 1783 c12 -2 32 -2 45 0 12 2 2 4 -23 4 -25 0 -35 -2 -22 -4z"/>
<path d="M1750 1780 c-18 -12 -2 -12 25 0 13 6 15 9 5 9 -8 0 -22 -4 -30 -9z"/>
<path d="M1008 1773 c6 -2 18 -2 25 0 6 3 1 5 -13 5 -14 0 -19 -2 -12 -5z"/>
<path d="M585 1760 c27 -12 43 -12 25 0 -8 5 -22 9 -30 9 -10 0 -8 -3 5 -9z"/>
<path d="M1640 1750 c-11 -8 -7 -9 15 -4 37 8 45 14 19 14 -10 0 -26 -5 -34
-10z"/>
<path d="M659 1740 c68 -30 209 -43 476 -44 229 0 284 3 365 19 52 11 85 21
73 23 -12 2 -39 -2 -60 -9 -24 -7 -146 -13 -333 -16 -285 -4 -380 1 -520 32
l-25 6 24 -11z"/>
<path d="M3273 1673 c-18 -2 -33 -8 -33 -13 0 -5 -7 -7 -15 -3 -37 14 -423
-125 -580 -210 -42 -22 -131 -65 -162 -78 -18 -8 -33 -17 -33 -20 0 -3 -6 -6
-13 -6 -7 0 -33 -7 -58 -17 -30 -12 -45 -23 -45 -35 0 -11 6 -17 13 -14 6 3 9
11 6 19 -3 9 1 14 12 14 9 0 13 -4 10 -10 -11 -18 6 -11 119 49 402 213 442
225 716 226 138 0 189 -4 240 -18 91 -25 194 -74 255 -122 48 -37 246 -238
341 -347 23 -26 83 -92 134 -147 50 -54 101 -111 113 -127 12 -16 42 -49 67
-73 33 -33 37 -39 14 -23 -17 12 -48 42 -68 67 -21 25 -42 45 -47 45 -6 0 -7
-5 -4 -10 10 -16 -6 -12 -29 7 -12 10 -8 3 8 -15 29 -32 54 -44 40 -19 -4 7
-3 9 2 4 5 -5 9 -14 9 -20 0 -13 200 -157 217 -157 6 0 0 9 -13 21 l-24 20 25
-11 c23 -10 22 -8 -4 12 -92 71 -170 146 -241 228 -44 51 -95 109 -114 129
-19 20 -32 37 -30 38 2 1 -37 48 -87 105 -121 136 -183 212 -224 273 -54 80
-151 169 -223 205 -57 28 -76 32 -164 35 -54 2 -113 1 -130 -2z m-53 -27 c0
-9 -30 -14 -35 -6 -4 6 3 10 14 10 12 0 21 -2 21 -4z m-88 -27 c-24 -11 -51
-19 -60 -16 -10 2 5 10 33 19 68 22 79 20 27 -3z"/>
<path d="M2555 1620 c-3 -5 -2 -10 4 -10 5 0 13 5 16 10 3 6 2 10 -4 10 -5 0
-13 -4 -16 -10z"/>
<path d="M2150 1580 c-9 -6 -10 -10 -3 -10 6 0 15 5 18 10 8 12 4 12 -15 0z"/>
<path d="M700 1537 c11 -12 121 -57 116 -48 -4 5 -3 11 1 14 5 2 3 2 -4 1 -7
-2 -25 3 -40 10 -34 17 -80 31 -73 23z"/>
<path d="M4103 1502 c-22 -7 -22 -7 -3 -32 l19 -25 -5 25 c-5 23 -4 24 9 7 12
-15 16 -15 26 -3 9 11 8 14 -6 12 -10 0 -17 5 -15 12 1 6 1 12 0 11 -2 -1 -13
-4 -25 -7z"/>
<path d="M878 1483 c7 -3 16 -2 19 1 4 3 -2 6 -13 5 -11 0 -14 -3 -6 -6z"/>
<path d="M1795 1472 c-5 -5 -128 -31 -245 -52 -147 -27 -424 -27 -530 -1 -41
10 -84 21 -95 25 -11 3 3 -5 31 -18 87 -41 325 -81 432 -71 139 12 450 87 466
113 4 7 -52 11 -59 4z m-420 -102 c-3 -5 -27 -9 -53 -8 l-47 1 45 7 c25 4 49
8 53 8 5 1 5 -2 2 -8z m88 3 c-13 -2 -33 -2 -45 0 -13 2 -3 4 22 4 25 0 35 -2
23 -4z"/>
<path d="M870 1460 c8 -5 20 -10 25 -10 6 0 3 5 -5 10 -8 5 -19 10 -25 10 -5
0 -3 -5 5 -10z"/>
<path d="M948 1453 c7 -3 16 -2 19 1 4 3 -2 6 -13 5 -11 0 -14 -3 -6 -6z"/>
<path d="M998 1443 c7 -3 16 -2 19 1 4 3 -2 6 -13 5 -11 0 -14 -3 -6 -6z"/>
<path d="M1031 1436 c2 -2 31 -6 64 -9 37 -3 51 -2 35 3 -25 8 -107 13 -99 6z"/>
<path d="M2855 1420 c-3 -6 1 -7 9 -4 18 7 21 14 7 14 -6 0 -13 -4 -16 -10z"/>
<path d="M2695 1334 c-44 -25 -84 -50 -90 -56 -5 -6 6 -2 25 9 19 11 61 35 93
52 31 18 57 34 57 37 0 6 0 6 -85 -42z"/>
<path d="M3110 1341 c-33 -5 -15 -7 65 -7 132 -1 230 -25 349 -86 70 -36 101
-62 224 -186 78 -80 142 -148 142 -152 0 -4 70 -73 155 -155 85 -81 155 -144
155 -140 0 4 -58 67 -130 140 -123 127 -150 165 -114 165 17 0 49 -28 49 -43
0 -6 7 -12 15 -14 12 -4 12 -3 2 5 -11 7 -10 11 4 16 9 3 19 4 22 1 3 -3 1 -5
-5 -5 -6 0 -9 -9 -6 -20 3 -11 9 -20 14 -20 4 0 21 -12 36 -26 43 -40 83 -66
83 -55 0 6 -5 11 -11 11 -6 0 -9 6 -6 14 3 8 -4 22 -16 33 l-22 18 19 -22 c21
-26 11 -30 -18 -8 -10 7 -15 18 -12 23 8 14 -72 84 -86 76 -6 -4 -8 -3 -5 3 7
11 -230 208 -346 287 -86 59 -190 108 -274 130 -71 19 -218 27 -283 17z m970
-486 c13 -14 19 -25 14 -25 -8 1 -50 50 -41 50 2 0 14 -11 27 -25z"/>
<path d="M4063 1332 c-7 -4 -9 -13 -4 -21 6 -9 10 -7 14 8 3 12 4 21 4 21 -1
0 -7 -4 -14 -8z"/>
<path d="M3023 1323 c9 -2 23 -2 30 0 6 3 -1 5 -18 5 -16 0 -22 -2 -12 -5z"/>
<path d="M1128 1313 c7 -3 16 -2 19 1 4 3 -2 6 -13 5 -11 0 -14 -3 -6 -6z"/>
<path d="M2978 1313 c7 -3 16 -2 19 1 4 3 -2 6 -13 5 -11 0 -14 -3 -6 -6z"/>
<path d="M1190 1300 c14 -4 34 -8 45 -8 16 0 15 2 -5 8 -14 4 -34 8 -45 8 -16
0 -15 -2 5 -8z"/>
<path d="M2938 1303 c7 -3 16 -2 19 1 4 3 -2 6 -13 5 -11 0 -14 -3 -6 -6z"/>
<path d="M2285 1290 c-13 -6 -15 -9 -5 -9 8 0 22 4 30 9 18 12 2 12 -25 0z"/>
<path d="M2880 1290 c-18 -12 -2 -12 25 0 13 6 15 9 5 9 -8 0 -22 -4 -30 -9z"/>
<path d="M2275 1260 c3 -5 11 -10 16 -10 6 0 7 5 4 10 -3 6 -11 10 -16 10 -6
0 -7 -4 -4 -10z"/>
<path d="M2558 1254 c-38 -20 -36 -28 2 -9 17 9 30 18 30 20 0 7 -1 6 -32 -11z"/>
<path d="M4335 1261 c-3 -5 -1 -12 5 -16 5 -3 10 1 10 9 0 18 -6 21 -15 7z"/>
<path d="M2150 1245 c-28 -11 -30 -14 -12 -14 32 -1 35 -2 53 -11 11 -6 16 -5
16 5 0 7 -6 11 -14 8 -7 -3 -13 0 -13 5 0 6 8 13 18 15 11 3 12 5 2 5 -8 0
-31 -6 -50 -13z"/>
<path d="M2770 1250 c-9 -6 -10 -10 -3 -10 6 0 15 5 18 10 8 12 4 12 -15 0z"/>
<path d="M3922 1135 c53 -60 101 -109 107 -108 6 2 10 -3 8 -10 -1 -6 4 -11
11 -9 8 1 10 -2 7 -8 -8 -13 15 -41 70 -83 l40 -31 -37 40 c-21 22 -38 44 -38
50 0 9 -163 179 -230 239 -19 17 9 -19 62 -80z"/>
<path d="M2620 1189 c-47 -23 -96 -45 -109 -50 -13 -5 -21 -12 -19 -15 3 -3
57 20 119 50 63 31 110 55 104 55 -5 0 -48 -18 -95 -40z"/>
<path d="M4170 1216 c0 -2 7 -9 15 -16 9 -7 15 -8 15 -2 0 5 -7 12 -15 16 -8
3 -15 4 -15 2z"/>
<path d="M4780 1210 c0 -5 10 -10 23 -10 18 0 19 2 7 10 -19 13 -30 13 -30 0z"/>
<path d="M4275 1193 c12 -10 24 -26 28 -36 4 -10 11 -15 17 -12 6 3 7 -1 4 -9
-4 -10 -1 -16 7 -16 7 0 23 -10 36 -22 20 -19 23 -19 23 -4 0 14 2 15 14 4 7
-7 11 -20 9 -28 -4 -13 -4 -13 5 0 9 12 14 12 31 -4 11 -10 18 -23 14 -29 -3
-5 -1 -7 4 -4 6 4 17 -1 24 -10 10 -12 10 -14 2 -9 -7 4 -13 5 -13 3 0 -9 71
-47 86 -47 8 0 13 -6 11 -12 -1 -7 6 -12 15 -12 10 1 15 -2 13 -7 -6 -9 124
-89 146 -89 8 0 2 8 -14 18 -15 10 -24 21 -21 25 4 4 -7 13 -25 20 -17 7 -29
16 -26 18 3 3 -5 5 -17 5 -13 -1 -23 5 -24 12 -1 6 -2 17 -3 22 0 6 -9 10 -19
10 -18 0 -46 35 -38 48 2 4 -7 8 -21 9 -18 1 -22 -2 -12 -7 7 -5 11 -11 8 -15
-8 -7 -59 41 -59 55 0 6 -13 13 -30 17 -16 3 -30 10 -30 15 0 5 -16 16 -35 24
-35 14 -44 28 -25 39 6 3 7 -1 4 -9 -3 -9 -1 -16 5 -16 6 0 11 9 11 20 0 15
-6 18 -30 15 -17 -2 -28 0 -25 5 7 11 -14 24 -45 27 -25 3 -25 3 -5 -14z m280
-203 c3 -6 -1 -7 -9 -4 -18 7 -21 14 -7 14 6 0 13 -4 16 -10z m140 -90 c3 -6
-1 -7 -9 -4 -18 7 -21 14 -7 14 6 0 13 -4 16 -10z"/>
<path d="M4900 1206 c0 -3 14 -13 31 -21 33 -18 34 -40 1 -39 -17 0 -19 -3
-12 -17 16 -29 43 -32 62 -9 10 12 18 25 18 29 0 3 -23 19 -50 34 -28 16 -50
26 -50 23z"/>
<path d="M1995 1190 c27 -12 43 -12 25 0 -8 5 -22 9 -30 9 -10 0 -8 -3 5 -9z"/>
<path d="M1875 1174 c-38 -8 -137 -18 -218 -23 -81 -5 -151 -12 -155 -16 -4
-4 35 -5 87 -1 52 3 137 6 190 7 58 0 88 4 76 8 -15 6 -9 10 30 15 28 4 57 11
65 17 19 11 11 10 -75 -7z"/>
<path d="M4160 1170 c0 -5 5 -10 11 -10 5 0 7 5 4 10 -3 6 -8 10 -11 10 -2 0
-4 -4 -4 -10z"/>
<path d="M4200 1176 c0 -2 7 -7 16 -10 8 -3 12 -2 9 4 -6 10 -25 14 -25 6z"/>
<path d="M1950 1160 c0 -6 7 -10 15 -10 8 0 15 2 15 4 0 2 -7 6 -15 10 -8 3
-15 1 -15 -4z"/>
<path d="M2890 1150 c-10 -7 1 -8 35 -4 28 4 52 8 54 10 10 9 -75 3 -89 -6z"/>
<path d="M3110 1151 c0 -4 11 -6 25 -3 16 3 25 0 25 -8 0 -8 9 -11 25 -8 14 3
25 1 25 -3 0 -5 9 -9 21 -9 29 0 176 -53 250 -91 80 -40 174 -99 264 -164 143
-105 157 -107 35 -5 -97 81 -221 163 -314 205 -89 42 -243 88 -273 82 -12 -2
-20 0 -17 4 3 5 -11 9 -30 9 -20 0 -36 -4 -36 -9z"/>
<path d="M2455 1110 c-3 -6 1 -7 9 -4 18 7 21 14 7 14 -6 0 -13 -4 -16 -10z"/>
<path d="M4370 1027 c30 -32 91 -84 135 -116 79 -58 195 -128 195 -118 0 3
-24 18 -52 35 -57 32 -194 132 -243 178 -72 66 -86 75 -35 21z"/>
<path d="M4640 1077 c0 -3 12 -12 26 -22 15 -9 23 -12 20 -6 -7 11 -46 35 -46
28z"/>
<path d="M3033 1033 c20 -2 54 -2 75 0 20 2 3 4 -38 4 -41 0 -58 -2 -37 -4z"/>
<path d="M3288 1003 c7 -3 16 -2 19 1 4 3 -2 6 -13 5 -11 0 -14 -3 -6 -6z"/>
<path d="M3335 993 c38 -10 190 -75 270 -116 44 -23 144 -88 223 -144 78 -56
142 -100 142 -99 0 2 -51 44 -112 93 -125 100 -215 161 -293 198 -69 32 -202
75 -229 74 -20 -1 -20 -2 -1 -6z"/>
<path d="M4680 971 c0 -6 4 -13 10 -16 6 -3 7 1 4 9 -7 18 -14 21 -14 7z"/>
<path d="M4762 897 c-8 -10 -6 -13 9 -13 10 0 19 6 19 13 0 7 -4 13 -9 13 -5
0 -13 -6 -19 -13z"/>
<path d="M4200 877 c0 -3 12 -12 26 -22 15 -9 23 -12 20 -6 -7 11 -46 35 -46
28z"/>
<path d="M1533 853 c9 -2 23 -2 30 0 6 3 -1 5 -18 5 -16 0 -22 -2 -12 -5z"/>
<path d="M4520 816 c0 -2 8 -10 18 -17 15 -13 16 -12 3 4 -13 16 -21 21 -21
13z"/>
<path d="M4180 776 c0 -2 8 -10 18 -17 15 -13 16 -12 3 4 -13 16 -21 21 -21
13z"/>
<path d="M4600 756 c0 -2 7 -7 16 -10 8 -3 12 -2 9 4 -6 10 -25 14 -25 6z"/>
<path d="M4220 746 c0 -2 8 -10 18 -17 15 -13 16 -12 3 4 -13 16 -21 21 -21
13z"/>
<path d="M4325 660 c6 -9 1 -10 -16 -5 l-24 7 23 -17 c12 -9 27 -13 32 -10 6
4 9 1 8 -7 -2 -8 6 -12 22 -10 17 1 21 -1 11 -7 -9 -6 -10 -11 -2 -15 6 -4 11
-2 11 4 0 6 11 5 30 -5 52 -27 45 -16 -16 23 -88 57 -88 57 -79 42z"/>
<path d="M3980 626 c0 -15 258 -201 267 -193 2 3 -26 26 -64 52 -37 25 -98 68
-135 95 -38 28 -68 48 -68 46z"/>
<path d="M4215 580 c3 -5 8 -10 11 -10 2 0 4 5 4 10 0 6 -5 10 -11 10 -5 0 -7
-4 -4 -10z"/>
<path d="M4400 586 c0 -3 9 -10 20 -16 11 -6 20 -8 20 -6 0 3 -9 10 -20 16
-11 6 -20 8 -20 6z"/>
<path d="M4261 563 c12 -15 12 -16 -4 -10 -10 4 -16 3 -12 -2 3 -6 14 -9 25
-8 18 1 18 2 3 19 -20 23 -30 24 -12 1z"/>
<path d="M4280 526 c0 -2 8 -10 18 -17 15 -13 16 -12 3 4 -13 16 -21 21 -21
13z"/>
<path d="M4310 526 c0 -2 8 -10 18 -17 15 -13 16 -12 3 4 -13 16 -21 21 -21
13z"/>
</g>
</svg>
